<svg xmlns="http://www.w3.org/2000/svg" viewBox="0 0 880 480" width="880" height="480">
<defs>
  <style>
    .title { font-family: -apple-system, BlinkMacSystemFont, "Segoe UI", Roboto, Helvetica, Arial, sans-serif; font-size: 16px; font-weight: 700; fill: #0f172a; }
    .subtitle { font-family: -apple-system, BlinkMacSystemFont, "Segoe UI", Roboto, Helvetica, Arial, sans-serif; font-size: 12px; fill: #64748b; }
    .axis-label { font-family: -apple-system, BlinkMacSystemFont, "Segoe UI", Roboto, Helvetica, Arial, sans-serif; font-size: 12px; font-weight: 600; fill: #334155; }
    .tick-label { font-family: -apple-system, BlinkMacSystemFont, "Segoe UI", Roboto, Helvetica, Arial, sans-serif; font-size: 11px; fill: #64748b; }
    .data-label { font-family: -apple-system, BlinkMacSystemFont, "Segoe UI", Roboto, Helvetica, Arial, sans-serif; font-size: 10px; font-weight: 700; }
    .legend-text { font-family: -apple-system, BlinkMacSystemFont, "Segoe UI", Roboto, Helvetica, Arial, sans-serif; font-size: 11px; font-weight: 500; fill: #334155; }
    .grid-line { stroke: #f1f5f9; stroke-width: 1; }
    .zero-line { stroke: #475569; stroke-width: 1.5; stroke-dasharray: 4,4; }
    .axis-line { stroke: #cbd5e1; stroke-width: 1.5; }
  </style>
  <linearGradient id="grad-green" x1="0" y1="0" x2="0" y2="1">
    <stop offset="0%" stop-color="#10b981" />
    <stop offset="100%" stop-color="#059669" />
  </linearGradient>
  <linearGradient id="grad-blue" x1="0" y1="0" x2="0" y2="1">
    <stop offset="0%" stop-color="#0ea5e9" />
    <stop offset="100%" stop-color="#0284c7" />
  </linearGradient>
  <linearGradient id="grad-amber" x1="0" y1="0" x2="0" y2="1">
    <stop offset="0%" stop-color="#f59e0b" />
    <stop offset="100%" stop-color="#d97706" />
  </linearGradient>
  <linearGradient id="grad-red" x1="0" y1="0" x2="0" y2="1">
    <stop offset="0%" stop-color="#f43f5e" />
    <stop offset="100%" stop-color="#e11d48" />
  </linearGradient>
</defs>
<rect width="880" height="480" rx="10" fill="#ffffff" stroke="#e2e8f0" stroke-width="1.5"/>
<text x="440.0" y="36" text-anchor="middle" class="title">Sky130 独热编码多路选择器关键路径延迟与时序裕量对比</text><text x="440.0" y="56" text-anchor="middle" class="subtitle">打破对数级级联 MUX 树延时瓶颈：32-to-1 下关键路径延迟暴降 -23.6% (5.30ns → 4.05ns)</text><line x1="80" y1="400" x2="820" y2="400" class="grid-line"/><text x="70" y="404" text-anchor="end" class="tick-label">0 ns</text><line x1="80" y1="360" x2="820" y2="360" class="grid-line"/><text x="70" y="364" text-anchor="end" class="tick-label">1 ns</text><line x1="80" y1="320" x2="820" y2="320" class="grid-line"/><text x="70" y="324" text-anchor="end" class="tick-label">2 ns</text><line x1="80" y1="280" x2="820" y2="280" class="grid-line"/><text x="70" y="284" text-anchor="end" class="tick-label">3 ns</text><line x1="80" y1="240" x2="820" y2="240" class="grid-line"/><text x="70" y="244" text-anchor="end" class="tick-label">4 ns</text><line x1="80" y1="200" x2="820" y2="200" class="grid-line"/><text x="70" y="204" text-anchor="end" class="tick-label">5 ns</text><line x1="80" y1="160" x2="820" y2="160" class="grid-line"/><text x="70" y="164" text-anchor="end" class="tick-label">6 ns</text><line x1="80" y1="120" x2="820" y2="120" class="grid-line"/><text x="70" y="124" text-anchor="end" class="tick-label">7 ns</text><line x1="80" y1="80" x2="820" y2="80" class="grid-line"/><text x="70" y="84" text-anchor="end" class="tick-label">8 ns</text><rect x="96.5" y="267" width="34" height="133" fill="#94a3b8" rx="2"/><text x="113.5" y="261" text-anchor="middle" class="data-label" fill="#475569">3.33</text><rect x="134.5" y="283" width="34" height="117" fill="#f59e0b" rx="2"/><text x="151.5" y="277" text-anchor="middle" class="data-label" fill="#b45309">2.93</text><rect x="176.5" y="139" width="34" height="261" fill="#60a5fa" rx="2"/><text x="193.5" y="133" text-anchor="middle" class="data-label" fill="#1d4ed8">6.54</text><rect x="214.5" y="123" width="34" height="277" fill="#10b981" rx="2"/><text x="231.5" y="117" text-anchor="middle" class="data-label" fill="#047857">6.94</text><text x="172.5" y="422" text-anchor="middle" class="axis-label">4-to-1 MUX</text><text x="134.5" y="436" text-anchor="middle" class="tick-label">延迟 (Delay)</text><text x="210.5" y="436" text-anchor="middle" class="tick-label">裕量 (Setup WS)</text><rect x="281.5" y="258" width="34" height="142" fill="#94a3b8" rx="2"/><text x="298.5" y="252" text-anchor="middle" class="data-label" fill="#475569">3.57</text><rect x="319.5" y="266" width="34" height="134" fill="#f59e0b" rx="2"/><text x="336.5" y="260" text-anchor="middle" class="data-label" fill="#b45309">3.35</text><rect x="361.5" y="148" width="34" height="252" fill="#60a5fa" rx="2"/><text x="378.5" y="142" text-anchor="middle" class="data-label" fill="#1d4ed8">6.31</text><rect x="399.5" y="141" width="34" height="259" fill="#10b981" rx="2"/><text x="416.5" y="135" text-anchor="middle" class="data-label" fill="#047857">6.50</text><text x="357.5" y="422" text-anchor="middle" class="axis-label">8-to-1 MUX</text><text x="319.5" y="436" text-anchor="middle" class="tick-label">延迟 (Delay)</text><text x="395.5" y="436" text-anchor="middle" class="tick-label">裕量 (Setup WS)</text><rect x="466.5" y="230" width="34" height="170" fill="#94a3b8" rx="2"/><text x="483.5" y="224" text-anchor="middle" class="data-label" fill="#475569">4.26</text><rect x="504.5" y="247" width="34" height="153" fill="#f59e0b" rx="2"/><text x="521.5" y="241" text-anchor="middle" class="data-label" fill="#b45309">3.83</text><rect x="546.5" y="176" width="34" height="224" fill="#60a5fa" rx="2"/><text x="563.5" y="170" text-anchor="middle" class="data-label" fill="#1d4ed8">5.62</text><rect x="584.5" y="159" width="34" height="241" fill="#10b981" rx="2"/><text x="601.5" y="153" text-anchor="middle" class="data-label" fill="#047857">6.03</text><text x="542.5" y="422" text-anchor="middle" class="axis-label">16-to-1 MUX</text><text x="504.5" y="436" text-anchor="middle" class="tick-label">延迟 (Delay)</text><text x="580.5" y="436" text-anchor="middle" class="tick-label">裕量 (Setup WS)</text><rect x="651.5" y="189" width="34" height="211" fill="#94a3b8" rx="2"/><text x="668.5" y="183" text-anchor="middle" class="data-label" fill="#475569">5.30</text><rect x="689.5" y="238" width="34" height="162" fill="#f59e0b" rx="2"/><text x="706.5" y="232" text-anchor="middle" class="data-label" fill="#b45309">4.05</text><rect x="731.5" y="218" width="34" height="182" fill="#60a5fa" rx="2"/><text x="748.5" y="212" text-anchor="middle" class="data-label" fill="#1d4ed8">4.57</text><rect x="769.5" y="168" width="34" height="232" fill="#10b981" rx="2"/><text x="786.5" y="162" text-anchor="middle" class="data-label" fill="#047857">5.81</text><text x="727.5" y="422" text-anchor="middle" class="axis-label">32-to-1 MUX</text><text x="689.5" y="436" text-anchor="middle" class="tick-label">延迟 (Delay)</text><text x="765.5" y="436" text-anchor="middle" class="tick-label">裕量 (Setup WS)</text><rect x="120" y="456" width="14" height="10" rx="2" fill="#94a3b8"/><text x="138" y="466" class="legend-text" font-size="11px">二进制-关键路径延时 (ns)</text><rect x="300" y="456" width="14" height="10" rx="2" fill="#f59e0b"/><text x="318" y="466" class="legend-text" font-size="11px">独热码-关键路径延时 (显著缩短)</text><rect x="480" y="456" width="14" height="10" rx="2" fill="#60a5fa"/><text x="498" y="466" class="legend-text" font-size="11px">二进制-Setup Slack (ns)</text><rect x="660" y="456" width="14" height="10" rx="2" fill="#10b981"/><text x="678" y="466" class="legend-text" font-size="11px">独热码-Setup Slack (裕量扩充 > 5.8ns)</text></svg>
