<svg xmlns="http://www.w3.org/2000/svg" viewBox="0 0 920 500" width="920" height="500">
<defs>
  <style>
    .title { font-family: -apple-system, BlinkMacSystemFont, "Segoe UI", Roboto, Helvetica, Arial, sans-serif; font-size: 16px; font-weight: 700; fill: #0f172a; }
    .subtitle { font-family: -apple-system, BlinkMacSystemFont, "Segoe UI", Roboto, Helvetica, Arial, sans-serif; font-size: 12px; fill: #64748b; }
    .axis-label { font-family: -apple-system, BlinkMacSystemFont, "Segoe UI", Roboto, Helvetica, Arial, sans-serif; font-size: 12px; font-weight: 600; fill: #334155; }
    .tick-label { font-family: -apple-system, BlinkMacSystemFont, "Segoe UI", Roboto, Helvetica, Arial, sans-serif; font-size: 11px; fill: #64748b; }
    .data-label { font-family: -apple-system, BlinkMacSystemFont, "Segoe UI", Roboto, Helvetica, Arial, sans-serif; font-size: 10px; font-weight: 700; }
    .legend-text { font-family: -apple-system, BlinkMacSystemFont, "Segoe UI", Roboto, Helvetica, Arial, sans-serif; font-size: 11px; font-weight: 500; fill: #334155; }
    .grid-line { stroke: #f1f5f9; stroke-width: 1; }
    .zero-line { stroke: #475569; stroke-width: 1.5; stroke-dasharray: 4,4; }
    .axis-line { stroke: #cbd5e1; stroke-width: 1.5; }
  </style>
  <linearGradient id="grad-green" x1="0" y1="0" x2="0" y2="1">
    <stop offset="0%" stop-color="#10b981" />
    <stop offset="100%" stop-color="#059669" />
  </linearGradient>
  <linearGradient id="grad-blue" x1="0" y1="0" x2="0" y2="1">
    <stop offset="0%" stop-color="#0ea5e9" />
    <stop offset="100%" stop-color="#0284c7" />
  </linearGradient>
  <linearGradient id="grad-amber" x1="0" y1="0" x2="0" y2="1">
    <stop offset="0%" stop-color="#f59e0b" />
    <stop offset="100%" stop-color="#d97706" />
  </linearGradient>
  <linearGradient id="grad-red" x1="0" y1="0" x2="0" y2="1">
    <stop offset="0%" stop-color="#f43f5e" />
    <stop offset="100%" stop-color="#e11d48" />
  </linearGradient>
</defs>
<rect width="920" height="500" rx="10" fill="#ffffff" stroke="#e2e8f0" stroke-width="1.5"/>
<text x="460.0" y="36" text-anchor="middle" class="title">Sky130 原始总线 vs 总线反转 (Bus-Invert) 内部微观功耗拆解对比 (Toggle Rate=60%)</text><text x="460.0" y="56" text-anchor="middle" class="subtitle">微观物理分量：时钟网络 (Clock)、触发器时序 (Sequential)、组合逻辑编码/解码 (Combinational)</text><line x1="80" y1="420" x2="860" y2="420" class="grid-line"/><text x="70" y="424" text-anchor="end" class="tick-label">0 µW</text><line x1="80" y1="372" x2="860" y2="372" class="grid-line"/><text x="70" y="376" text-anchor="end" class="tick-label">500 µW</text><line x1="80" y1="323" x2="860" y2="323" class="grid-line"/><text x="70" y="327" text-anchor="end" class="tick-label">1000 µW</text><line x1="80" y1="275" x2="860" y2="275" class="grid-line"/><text x="70" y="279" text-anchor="end" class="tick-label">1500 µW</text><line x1="80" y1="226" x2="860" y2="226" class="grid-line"/><text x="70" y="230" text-anchor="end" class="tick-label">2000 µW</text><line x1="80" y1="178" x2="860" y2="178" class="grid-line"/><text x="70" y="182" text-anchor="end" class="tick-label">2500 µW</text><line x1="80" y1="129" x2="860" y2="129" class="grid-line"/><text x="70" y="133" text-anchor="end" class="tick-label">3000 µW</text><line x1="80" y1="80" x2="860" y2="80" class="grid-line"/><text x="70" y="84" text-anchor="end" class="tick-label">3500 µW</text><rect x="125.5" y="413" width="44" height="7" fill="#94a3b8"/><rect x="125.5" y="404" width="44" height="9" fill="#38bdf8"/><rect x="125.5" y="402" width="44" height="2" fill="#f43f5e"/><text x="147.5" y="396" text-anchor="middle" class="data-label" fill="#0f172a">197</text><rect x="185.5" y="413" width="44" height="7" fill="#64748b"/><rect x="185.5" y="403" width="44" height="10" fill="#0284c7"/><rect x="185.5" y="390" width="44" height="13" fill="#f59e0b"/><text x="207.5" y="384" text-anchor="middle" class="data-label" fill="#b45309">330</text><text x="177.5" y="442" text-anchor="middle" class="axis-label">8-bit 总线</text><text x="147.5" y="456" text-anchor="middle" class="tick-label">原始总线</text><text x="207.5" y="456" text-anchor="middle" class="tick-label">Bus-Invert</text><rect x="320.5" y="404" width="44" height="16" fill="#94a3b8"/><rect x="320.5" y="386" width="44" height="18" fill="#38bdf8"/><rect x="320.5" y="381" width="44" height="5" fill="#f43f5e"/><text x="342.5" y="375" text-anchor="middle" class="data-label" fill="#0f172a">414</text><rect x="380.5" y="406" width="44" height="14" fill="#64748b"/><rect x="380.5" y="386" width="44" height="20" fill="#0284c7"/><rect x="380.5" y="350" width="44" height="36" fill="#f59e0b"/><text x="402.5" y="344" text-anchor="middle" class="data-label" fill="#b45309">742</text><text x="372.5" y="442" text-anchor="middle" class="axis-label">16-bit 总线</text><text x="342.5" y="456" text-anchor="middle" class="tick-label">原始总线</text><text x="402.5" y="456" text-anchor="middle" class="tick-label">Bus-Invert</text><rect x="515.5" y="388" width="44" height="32" fill="#94a3b8"/><rect x="515.5" y="352" width="44" height="36" fill="#38bdf8"/><rect x="515.5" y="341" width="44" height="11" fill="#f43f5e"/><text x="537.5" y="335" text-anchor="middle" class="data-label" fill="#0f172a">833</text><rect x="575.5" y="387" width="44" height="33" fill="#64748b"/><rect x="575.5" y="347" width="44" height="40" fill="#0284c7"/><rect x="575.5" y="267" width="44" height="80" fill="#f59e0b"/><text x="597.5" y="261" text-anchor="middle" class="data-label" fill="#b45309">1595</text><text x="567.5" y="442" text-anchor="middle" class="axis-label">32-bit 总线</text><text x="537.5" y="456" text-anchor="middle" class="tick-label">原始总线</text><text x="597.5" y="456" text-anchor="middle" class="tick-label">Bus-Invert</text><rect x="710.5" y="370" width="44" height="50" fill="#94a3b8"/><rect x="710.5" y="296" width="44" height="74" fill="#38bdf8"/><rect x="710.5" y="273" width="44" height="23" fill="#f43f5e"/><text x="732.5" y="267" text-anchor="middle" class="data-label" fill="#0f172a">1526</text><rect x="770.5" y="372" width="44" height="48" fill="#64748b"/><rect x="770.5" y="292" width="44" height="80" fill="#0284c7"/><rect x="770.5" y="108" width="44" height="184" fill="#f59e0b"/><text x="792.5" y="102" text-anchor="middle" class="data-label" fill="#b45309">3227</text><text x="762.5" y="442" text-anchor="middle" class="axis-label">64-bit 总线</text><text x="732.5" y="456" text-anchor="middle" class="tick-label">原始总线</text><text x="792.5" y="456" text-anchor="middle" class="tick-label">Bus-Invert</text><rect x="120" y="476" width="14" height="10" rx="2" fill="#94a3b8"/><text x="138" y="486" class="legend-text" font-size="11px">时钟网络功耗 (Clock)</text><rect x="310" y="476" width="14" height="10" rx="2" fill="#38bdf8"/><text x="328" y="486" class="legend-text" font-size="11px">时序寄存器功耗 (Sequential)</text><rect x="500" y="476" width="14" height="10" rx="2" fill="#f43f5e"/><text x="518" y="486" class="legend-text" font-size="11px">原始总线组合逻辑 (Combinational)</text><rect x="690" y="476" width="14" height="10" rx="2" fill="#f59e0b"/><text x="708" y="486" class="legend-text" font-size="11px">Bus-Invert 组合逻辑 (加法树与异或开销)</text></svg>
